<?xml version="1.0" encoding="UTF-8" standalone="no"?>
<!-- Created with Inkscape (http://www.inkscape.org/) -->

<svg
   xmlns:dc="http://purl.org/dc/elements/1.1/"
   xmlns:cc="http://creativecommons.org/ns#"
   xmlns:rdf="http://www.w3.org/1999/02/22-rdf-syntax-ns#"
   xmlns:svg="http://www.w3.org/2000/svg"
   xmlns="http://www.w3.org/2000/svg"
   xmlns:sodipodi="http://sodipodi.sourceforge.net/DTD/sodipodi-0.dtd"
   xmlns:inkscape="http://www.inkscape.org/namespaces/inkscape"
   width="350"
   height="75"
   viewBox="0 0 92.604167 19.84375"
   version="1.1"
   id="svg4122"
   inkscape:version="0.92.5 (2060ec1f9f, 2020-04-08)"
   sodipodi:docname="yzylogo.svg">
  <defs
     id="defs4116" />
  <sodipodi:namedview
     id="base"
     pagecolor="#ffffff"
     bordercolor="#666666"
     borderopacity="1.0"
     inkscape:pageopacity="0.0"
     inkscape:pageshadow="2"
     inkscape:zoom="1.979899"
     inkscape:cx="227.92593"
     inkscape:cy="81.781775"
     inkscape:document-units="mm"
     inkscape:current-layer="g4142"
     showgrid="false"
     inkscape:window-width="1920"
     inkscape:window-height="1011"
     inkscape:window-x="0"
     inkscape:window-y="0"
     inkscape:window-maximized="1" />
  <metadata
     id="metadata4119">
    <rdf:RDF>
      <cc:Work
         rdf:about="">
        <dc:format>image/svg+xml</dc:format>
        <dc:type
           rdf:resource="http://purl.org/dc/dcmitype/StillImage" />
        <dc:title></dc:title>
      </cc:Work>
    </rdf:RDF>
  </metadata>
  <g
     inkscape:label="Calque 1"
     inkscape:groupmode="layer"
     id="layer1"
     transform="translate(0,-277.15624)">
    <g
       transform="matrix(0.20080871,0,0,0.21053841,0.44500353,277.64515)"
       id="g4142"
       style="fill:#000080">
      <text
         xml:space="preserve"
         style="font-style:normal;font-variant:normal;font-weight:normal;font-stretch:condensed;font-size:63.65490341px;line-height:1.25;font-family:Impact;-inkscape-font-specification:'Impact, Condensed';font-variant-ligatures:normal;font-variant-caps:normal;font-variant-numeric:normal;font-feature-settings:normal;text-align:start;letter-spacing:0px;word-spacing:0px;writing-mode:lr-tb;text-anchor:start;fill:#00838f;fill-opacity:1;stroke:none;stroke-width:1.59145224"
         x="108.95847"
         y="70.826294"
         id="text4192"
         transform="scale(0.9587008,1.0430783)"><tspan
           sodipodi:role="line"
           id="tspan4190"
           x="108.95847"
           y="70.826294"
           style="font-style:normal;font-variant:normal;font-weight:normal;font-stretch:condensed;font-size:63.65490341px;font-family:Impact;-inkscape-font-specification:'Impact, Condensed';font-variant-ligatures:normal;font-variant-caps:normal;font-variant-numeric:normal;font-feature-settings:normal;text-align:start;writing-mode:lr-tb;text-anchor:start;fill:#00838f;fill-opacity:1;stroke-width:1.59145224">YZY Solutions</tspan></text>
      <g
         transform="matrix(0.42379705,0,0,0.41763741,-8.396677,-9.9464223)"
         id="g5181"
         style="fill:#00838f;fill-opacity:1">
        <circle
           cx="130"
           cy="48"
           r="23.200001"
           id="circle5161"
           style="fill:#00838f;fill-opacity:1" />
        <circle
           cx="47.099998"
           cy="191.60001"
           r="23.200001"
           id="circle5163"
           style="fill:#00838f;fill-opacity:1" />
        <circle
           cx="212.89999"
           cy="191.60001"
           r="23.200001"
           id="circle5165"
           style="fill:#00838f;fill-opacity:1" />
        <path
           inkscape:connector-curvature="0"
           d="m 184.7,191.2 c -9.4,10.9 -22.1,18.9 -36.4,22.6 l -18.3,-67 v 88.3 0 c 24,0 45.9,-9.3 62.2,-24.4 -4.9,-5.3 -7.6,-12.3 -7.5,-19.5 z"
           id="path5167"
           style="fill:#00838f;fill-opacity:1" />
        <path
           inkscape:connector-curvature="0"
           d="m 211.4,102 -37.3,21.5 2.3,26 25.5,-14.7 c 0.4,2.9 0.6,5.9 0.6,9 0,8.3 -1.4,16.2 -4,23.6 6.2,-3.6 13.6,-4.8 20.7,-3.2 1.5,-6.6 2.3,-13.4 2.3,-20.4 0,-15.1 -3.6,-29.3 -10.1,-41.8 z"
           id="path5169"
           style="fill:#00838f;fill-opacity:1" />
        <path
           inkscape:connector-curvature="0"
           d="M 209.3,97.9 C 197.9,78.1 179.2,63.1 157,56.2 c -2.1,7 -6.9,12.8 -13.1,16.3 14.6,2.8 27.6,10.1 37.7,20.3 l -48.8,49.3 z"
           id="path5171"
           style="fill:#00838f;fill-opacity:1" />
        <path
           inkscape:connector-curvature="0"
           d="M 116.1,72.5 C 109.9,69 105.1,63.2 103,56.2 82.3,62.6 64.7,76.2 53.1,94 l 37.3,21.5 21.3,-15 -25.4,-14.6 c 8.6,-6.5 18.8,-11.2 29.8,-13.4 z"
           id="path5173"
           style="fill:#00838f;fill-opacity:1" />
        <g
           id="g5179"
           style="fill:#00838f;fill-opacity:1">
          <path
             inkscape:connector-curvature="0"
             d="m 101.8,210.5 c -10.2,-4.3 -19.3,-11 -26.5,-19.2 0.1,7.2 -2.6,14.2 -7.5,19.5 15.3,14.2 35.4,23.2 57.6,24.3 V 192 l -23.6,-11 z"
             id="path5175"
             style="fill:#00838f;fill-opacity:1" />
          <path
             inkscape:connector-curvature="0"
             d="M 60.1,124.5 127.3,142.1 50.7,97.9 C 43,111.4 38.5,127 38.5,143.7 c 0,7 0.8,13.8 2.3,20.4 7.1,-1.6 14.5,-0.4 20.6,3.2 -2.6,-7.4 -3.9,-15.3 -3.9,-23.6 0,-6.6 0.9,-13.1 2.6,-19.2 z"
             id="path5177"
             style="fill:#00838f;fill-opacity:1" />
        </g>
      </g>
    </g>
  </g>
</svg>
